<?xml version="1.0" standalone="no"?>
<!DOCTYPE svg PUBLIC "-//W3C//DTD SVG 20010904//EN"
 "http://www.w3.org/TR/2001/REC-SVG-20010904/DTD/svg10.dtd">
<svg version="1.0" xmlns="http://www.w3.org/2000/svg"
 width="512.000000pt" height="512.000000pt" viewBox="0 0 512.000000 512.000000"
 preserveAspectRatio="xMidYMid meet">
<metadata>
Created by potrace 1.11, written by Peter Selinger 2001-2013
</metadata>
<g transform="translate(0.000000,512.000000) scale(0.100000,-0.100000)"
fill="#000000" stroke="none">
<path d="M945 4774 c-11 -2 -45 -9 -75 -15 -30 -6 -97 -31 -149 -56 -79 -38
-109 -59 -177 -127 -68 -68 -90 -99 -127 -177 -82 -169 -77 -49 -77 -1839 0
-1790 -5 -1670 77 -1839 37 -78 59 -109 127 -177 68 -68 99 -90 177 -127 169
-82 49 -77 1839 -77 1790 0 1670 -5 1839 77 78 37 109 59 177 127 68 68 90 99
127 177 82 169 77 49 77 1839 0 1790 5 1670 -77 1839 -61 128 -168 236 -293
299 -166 84 3 76 -1820 78 -894 1 -1634 0 -1645 -2z m3255 -1290 c74 -15 193
-57 218 -77 16 -12 17 -247 1 -247 -6 0 -29 13 -52 29 -102 70 -210 104 -363
116 -178 14 -318 -37 -440 -159 -79 -78 -123 -153 -158 -263 l-7 -23 276 0
276 0 -7 -22 c-3 -13 -15 -43 -24 -68 l-18 -45 -266 -3 -266 -2 0 -110 0 -110
220 0 c159 0 220 -3 220 -11 0 -7 -10 -38 -21 -70 l-22 -59 -184 0 -185 0 6
-27 c4 -16 25 -66 47 -112 31 -65 55 -99 112 -155 119 -118 236 -166 402 -166
167 1 291 35 399 109 25 17 49 31 55 31 7 0 11 -41 11 -119 l0 -120 -80 -30
c-143 -56 -199 -65 -385 -66 -133 0 -184 4 -235 18 -281 77 -497 292 -566 565
l-18 72 -78 0 -77 0 21 58 c28 76 34 82 77 82 l36 0 0 110 1 109 -67 3 -67 3
25 68 25 67 54 0 53 0 21 69 c92 309 344 527 661 571 83 11 273 3 369 -16z
m-3014 -387 c104 -209 194 -379 198 -379 5 0 95 171 201 379 l193 378 116 3
c67 1 116 -1 116 -7 0 -5 -117 -229 -260 -497 -159 -300 -260 -499 -260 -516
l0 -28 220 0 220 0 0 -80 0 -80 -220 0 -220 0 0 -80 0 -80 220 0 220 0 0 -80
0 -80 -220 0 -220 0 0 -110 0 -110 -110 0 -110 0 0 110 0 110 -215 0 -215 0 0
80 0 80 215 0 215 0 0 80 0 80 -215 0 -215 0 0 80 0 80 215 0 215 0 0 34 c0
26 -65 155 -256 511 -141 263 -258 484 -261 492 -4 11 16 13 118 11 l124 -3
191 -378z m1642 -463 l143 -69 -244 -127 c-135 -71 -247 -128 -251 -128 -3 0
-6 36 -6 80 l0 80 -225 0 -225 0 0 75 0 75 220 0 220 0 0 94 0 95 113 -53 c61
-30 176 -85 255 -122z"/>
</g>
</svg>
