<?xml version="1.0" standalone="no"?>
<!DOCTYPE svg PUBLIC "-//W3C//DTD SVG 20010904//EN"
 "http://www.w3.org/TR/2001/REC-SVG-20010904/DTD/svg10.dtd">
<svg version="1.0" xmlns="http://www.w3.org/2000/svg"
 width="320.000000pt" height="320.000000pt" viewBox="0 0 320.000000 320.000000"
 preserveAspectRatio="xMidYMid meet">
<metadata>
Created by potrace 1.14, written by Peter Selinger 2001-2017
</metadata>
<g transform="translate(0.000000,320.000000) scale(0.100000,-0.100000)"
fill="#000000" stroke="none">
<path d="M1315 2885 c-49 -13 -110 -30 -135 -39 -64 -24 -388 -132 -430 -145
-19 -5 -66 -21 -105 -35 -38 -14 -76 -25 -84 -26 -24 0 -111 -71 -141 -115
-16 -24 -40 -69 -52 -101 -23 -59 -23 -61 -23 -604 0 -495 2 -549 18 -593 29
-81 54 -122 109 -182 95 -104 176 -142 408 -191 41 -9 82 -20 91 -24 9 -6 24
-45 38 -102 13 -51 37 -140 53 -198 16 -58 37 -130 45 -160 39 -140 116 -184
214 -122 57 37 92 76 244 280 50 67 95 123 100 125 6 3 33 0 60 -5 28 -6 108
-12 179 -15 105 -4 140 -1 185 13 72 22 66 18 340 224 128 96 251 187 272 202
71 50 109 91 137 147 l27 56 0 666 0 665 -24 48 c-43 83 -102 116 -231 131
-30 3 -100 12 -155 21 -236 35 -293 43 -350 49 -33 3 -89 10 -125 15 -320 47
-525 52 -665 15z m415 -141 c69 -8 152 -19 185 -24 33 -6 94 -12 135 -16 41
-3 107 -12 147 -20 40 -8 89 -14 110 -14 21 0 69 -7 106 -16 63 -16 68 -19 65
-41 -2 -20 -15 -30 -63 -49 -33 -14 -69 -29 -80 -33 -11 -5 -33 -14 -50 -21
-16 -7 -41 -16 -55 -20 -14 -5 -50 -18 -80 -30 -121 -48 -192 -57 -289 -40
-96 17 -383 62 -451 70 -77 11 -224 34 -299 49 -29 6 -71 11 -92 11 -35 0 -59
18 -59 44 0 8 75 41 150 65 36 12 74 26 85 31 44 20 183 62 230 70 57 10 128
6 305 -16z m-923 -384 c26 -5 82 -14 123 -21 41 -6 111 -18 155 -26 44 -8 105
-18 135 -23 84 -11 197 -29 280 -45 41 -8 120 -21 175 -30 210 -34 256 -50
289 -107 14 -23 16 -90 16 -557 l0 -530 -37 -36 c-35 -34 -38 -35 -118 -35
-45 0 -104 6 -131 14 -82 24 -119 27 -136 14 -8 -7 -56 -82 -106 -166 -96
-159 -112 -182 -150 -201 -18 -10 -27 -10 -40 0 -9 8 -19 14 -21 16 -2 1 -8
22 -13 45 -27 128 -39 191 -52 263 -25 142 -30 152 -79 160 -23 4 -64 13 -92
20 -27 7 -86 20 -130 30 -187 39 -214 50 -248 105 -22 35 -22 39 -22 530 0
495 0 495 22 531 36 57 80 69 180 49z m1843 -474 c0 -402 -2 -458 -16 -483 -9
-15 -60 -57 -113 -93 -53 -36 -98 -67 -101 -70 -25 -26 -122 -81 -134 -77 -8
3 -18 21 -21 39 -3 18 -5 233 -3 478 3 333 7 453 16 476 11 27 36 43 160 107
85 43 161 75 180 76 l32 1 0 -454z"/>
</g>
</svg>
