<?xml version="1.0" standalone="no"?>
<!DOCTYPE svg PUBLIC "-//W3C//DTD SVG 20010904//EN"
 "http://www.w3.org/TR/2001/REC-SVG-20010904/DTD/svg10.dtd">
<svg version="1.0" xmlns="http://www.w3.org/2000/svg"
 width="320.000000pt" height="320.000000pt" viewBox="0 0 320.000000 320.000000"
 preserveAspectRatio="xMidYMid meet">
<metadata>
Created by potrace 1.11, written by Peter Selinger 2001-2013
</metadata>
<g transform="translate(0.000000,320.000000) scale(0.100000,-0.100000)"
fill="#000000" stroke="none">
<path d="M1510 2936 c-3 -3 -48 -10 -100 -17 -52 -6 -99 -14 -105 -19 -5 -4
-28 -11 -50 -15 -22 -4 -44 -10 -50 -15 -5 -4 -27 -10 -47 -14 -21 -4 -38 -11
-38 -16 0 -6 -9 -10 -21 -10 -12 0 -35 -6 -52 -14 -18 -8 -49 -17 -69 -21 -21
-3 -38 -10 -38 -15 0 -6 -9 -10 -21 -10 -12 0 -35 -6 -52 -14 -18 -8 -49 -17
-69 -21 -21 -3 -38 -10 -38 -15 0 -6 -13 -10 -28 -10 -16 0 -37 -7 -48 -15
-10 -8 -30 -15 -44 -15 -14 0 -38 -7 -54 -15 -15 -8 -35 -15 -44 -15 -17 0
-99 -63 -122 -95 -19 -26 -38 -56 -45 -75 -4 -8 -13 -28 -22 -43 -26 -49 -44
-946 -22 -1116 17 -130 79 -247 181 -340 44 -40 135 -88 184 -97 19 -3 36 -10
39 -14 3 -5 34 -12 70 -15 36 -4 68 -11 71 -16 3 -5 20 -9 37 -9 18 0 37 -4
42 -8 17 -12 33 -54 40 -102 3 -24 10 -49 14 -55 5 -5 11 -30 14 -55 3 -24 11
-46 16 -48 6 -2 11 -18 11 -35 0 -18 7 -45 15 -61 8 -15 15 -42 15 -60 0 -17
7 -44 15 -60 8 -15 15 -34 15 -42 0 -7 17 -31 38 -53 49 -51 93 -61 153 -32
54 25 73 42 124 106 22 28 43 51 48 53 4 2 7 10 7 18 0 8 4 14 8 14 5 0 30 30
57 67 28 37 58 74 67 82 10 9 18 20 18 26 1 5 10 21 20 34 16 19 26 22 53 17
77 -15 248 -24 317 -17 69 8 131 25 155 44 6 4 78 57 160 118 83 61 152 115
153 120 2 5 8 9 13 9 13 0 109 72 109 82 0 4 4 8 10 8 12 0 104 69 108 81 2 5
9 9 15 9 20 1 61 43 97 100 l35 55 0 695 0 695 -35 53 c-19 28 -40 52 -47 52
-7 0 -13 4 -13 8 0 17 -89 46 -165 53 -44 5 -100 13 -125 18 -25 6 -69 10 -98
11 -29 0 -62 5 -72 10 -19 10 -81 18 -315 41 -60 5 -126 14 -145 19 -19 5 -93
14 -165 20 -71 5 -141 13 -155 16 -14 3 -28 3 -30 0z m250 -210 c69 -9 177
-22 240 -30 224 -27 460 -62 467 -69 6 -7 -9 -37 -19 -37 -6 0 -24 -6 -41 -14
-18 -7 -57 -23 -87 -35 -30 -12 -64 -26 -75 -30 -88 -37 -201 -72 -250 -77
-63 -6 -179 5 -330 31 -49 9 -135 22 -190 30 -55 8 -138 21 -185 29 -143 24
-284 45 -297 46 -7 0 -13 6 -13 14 0 8 27 23 63 36 181 65 227 81 277 95 30 9
64 21 75 26 27 12 213 4 365 -15z m-966 -376 c33 -6 113 -20 176 -31 110 -20
187 -32 392 -63 51 -8 116 -19 143 -24 28 -6 84 -16 125 -22 284 -47 310 -57
330 -129 6 -22 10 -237 10 -539 0 -450 -2 -505 -16 -528 -40 -60 -128 -69
-284 -30 -102 25 -123 23 -141 -17 -5 -12 -31 -58 -58 -102 -27 -44 -59 -99
-71 -121 -12 -23 -39 -61 -60 -85 -34 -40 -40 -43 -66 -34 -25 9 -29 17 -40
75 -22 128 -57 296 -70 345 l-13 50 -153 34 c-260 57 -282 63 -316 83 -63 38
-62 26 -62 573 0 543 -2 527 59 560 32 17 38 18 115 5z"/>
</g>
</svg>
