<?xml version="1.0" standalone="no"?>
<!DOCTYPE svg PUBLIC "-//W3C//DTD SVG 20010904//EN"
 "http://www.w3.org/TR/2001/REC-SVG-20010904/DTD/svg10.dtd">
<svg version="1.0" xmlns="http://www.w3.org/2000/svg"
 width="260.000000pt" height="260.000000pt" viewBox="0 0 260.000000 260.000000"
 preserveAspectRatio="xMidYMid meet">
<metadata>
Created by potrace 1.14, written by Peter Selinger 2001-2017
</metadata>
<g transform="translate(0.000000,260.000000) scale(0.100000,-0.100000)"
fill="#000000" stroke="none">
<path d="M0 1300 l0 -1300 1300 0 1300 0 0 1300 0 1300 -1300 0 -1300 0 0
-1300z m1330 1258 c0 6 13 10 28 9 29 -2 30 -6 23 -59 -2 -12 -39 -9 -47 4 -4
7 -3 8 4 4 7 -4 12 -1 12 8 0 9 -6 16 -14 16 -7 0 -20 8 -27 18 -13 15 -12 16
4 3 10 -8 17 -9 17 -3z m-26 -16 c2 -4 -2 -15 -9 -25 -12 -17 -13 -16 -11 7 1
25 10 34 20 18z m978 -159 l3 -107 95 -1 c52 0 101 -4 108 -9 10 -6 12 -155
10 -774 -2 -422 -4 -858 -6 -969 l-3 -203 -105 0 -104 0 0 -105 0 -105 -975 0
-975 0 0 108 0 107 -102 0 -103 0 0 975 0 975 75 1 c41 1 87 2 103 3 l27 1 0
105 0 105 975 0 974 0 3 -107z"/>
<path d="M370 2339 l0 -110 -52 1 c-123 4 -158 0 -158 -15 0 -12 20 -15 119
-15 l119 0 3 73 c6 111 0 177 -17 177 -11 0 -14 -22 -14 -111z"/>
<path d="M430 2313 l0 -133 -135 0 -135 0 0 -880 0 -879 133 -3 132 -3 3 -132
3 -133 879 0 880 0 0 135 0 135 134 0 135 0 -2 880 -2 880 -132 0 -133 0 0
133 0 134 -880 -1 -880 0 0 -133z m690 52 c0 -5 -9 5 -20 23 -26 42 -26 56 0
17 11 -16 20 -34 20 -40z m111 42 c-10 -9 -11 -8 -5 6 3 10 9 15 12 12 3 -3 0
-11 -7 -18z m39 -12 c-18 -19 -35 -33 -37 -31 -6 6 50 64 61 65 6 1 -5 -15
-24 -34z m186 3 l29 -33 -32 29 c-31 28 -38 36 -30 36 2 0 16 -15 33 -32z m44
7 c14 -19 14 -19 -2 -6 -10 7 -18 18 -18 24 0 6 1 8 3 6 1 -2 9 -13 17 -24z
m57 -7 c-3 -7 -5 -2 -5 12 0 14 2 19 5 13 2 -7 2 -19 0 -25z m-420 -30 c-3 -7
-5 -2 -5 12 0 14 2 19 5 13 2 -7 2 -19 0 -25z m45 0 c-12 -12 -35 -1 -27 12 3
5 13 6 21 3 10 -4 12 -9 6 -15z m419 -1 c-10 -9 -11 -8 -5 6 3 10 9 15 12 12
3 -3 0 -11 -7 -18z m-804 -43 c-3 -3 -12 -4 -19 -1 -8 3 -5 6 6 6 11 1 17 -2
13 -5z m322 -6 c11 -10 13 -10 7 0 -5 9 9 12 61 12 37 0 63 -4 56 -8 -8 -5 3
-33 38 -92 28 -47 48 -76 45 -65 -7 28 -36 155 -36 161 0 2 4 4 8 4 5 0 17
-37 28 -82 l19 -83 3 83 c2 45 7 82 12 82 6 0 10 -35 11 -77 l1 -78 18 70 c11
39 19 73 19 78 1 4 5 7 10 7 7 0 4 -25 -23 -145 -6 -27 -5 -28 6 -11 51 74 87
139 82 147 -3 6 27 9 78 8 46 -1 77 -4 70 -6 -10 -4 -10 -8 0 -21 11 -14 9
-14 -12 1 -13 9 -36 17 -49 17 -24 0 -24 -1 -5 -14 10 -8 15 -18 11 -22 -4 -4
25 -41 65 -81 40 -40 68 -73 63 -73 -6 0 -41 32 -79 70 l-68 69 -68 -72 c-37
-40 -67 -73 -66 -74 1 -1 24 5 51 13 52 16 141 13 173 -6 16 -9 16 -9 0 -10
-11 0 -20 -11 -24 -27 -4 -16 -14 -58 -24 -95 -9 -38 -16 -68 -15 -68 10 0 95
165 91 176 -3 8 -2 14 2 14 10 0 72 -39 72 -45 0 -3 -9 0 -20 7 -14 9 -23 9
-30 2 -22 -22 -98 -159 -90 -162 5 -2 6 -11 3 -19 -6 -15 -4 -15 17 0 31 21
66 22 74 1 9 -24 7 -46 -4 -39 -5 3 -10 15 -10 26 0 10 -2 19 -5 19 -10 0 -55
-24 -55 -29 1 -14 27 -39 49 -46 13 -4 41 -23 62 -42 l39 -35 9 23 c6 14 10
18 10 9 1 -9 -4 -21 -9 -26 -8 -8 -8 -19 0 -38 27 -73 -6 -170 -75 -219 -33
-22 -52 -28 -100 -29 -45 0 -54 -3 -37 -9 36 -14 26 -19 -35 -18 -42 0 -52 3
-38 9 11 5 16 9 11 9 -6 1 -1 8 10 16 10 8 14 15 8 15 -18 0 -76 64 -87 94
-10 30 -10 30 -19 6 -7 -19 -3 -29 19 -54 l28 -31 -31 27 -30 28 -34 -35 -34
-35 36 0 c20 0 39 -3 41 -8 3 -4 -9 -7 -26 -7 -25 0 -31 -4 -29 -17 2 -10 -2
-18 -7 -18 -5 0 -11 10 -13 23 -2 14 -9 21 -18 18 -8 -2 -44 -7 -80 -11 -36
-4 -60 -8 -55 -9 16 -2 -18 -21 -39 -21 -13 0 -16 5 -12 16 5 13 0 16 -31 13
l-38 -4 -1 90 c0 66 -5 99 -18 124 -14 27 -20 31 -28 20 -7 -10 -8 -8 -3 9 4
13 2 22 -4 22 -7 0 -11 -45 -11 -131 l0 -130 -37 3 -38 3 0 175 0 175 28 3
c16 2 42 -1 60 -7 23 -9 33 -8 38 1 5 7 25 11 51 10 l43 -3 -25 20 c-14 11
-26 16 -28 11 -2 -6 -8 -10 -14 -10 -6 0 -7 7 -4 15 4 10 -2 19 -17 25 -21 8
-21 9 -2 9 12 1 26 -4 32 -10 7 -7 14 -1 22 19 10 24 9 43 -8 112 -12 46 -23
85 -25 87 -6 6 -56 -8 -56 -16 0 -3 12 -23 26 -44 25 -37 58 -107 51 -107 -7
0 -65 97 -72 119 -3 12 -14 21 -23 21 -14 1 -13 4 5 19 13 11 55 25 93 32 68
12 113 8 175 -16 11 -4 -11 24 -50 64 -38 39 -73 71 -78 71 -9 0 -157 -151
-173 -178 -10 -16 -4 -26 47 -78 64 -64 105 -120 54 -74 -15 14 -48 46 -73 72
-37 40 -47 46 -63 37 -13 -6 -19 -6 -19 1 0 5 6 10 12 10 7 0 3 10 -9 22 -19
18 -24 19 -38 8 -15 -12 -16 -11 -13 5 2 12 -6 23 -22 32 -14 7 -18 13 -10 13
8 0 35 -12 59 -25 24 -14 39 -19 32 -12 -6 8 -8 17 -5 20 3 3 -6 21 -20 40
-14 19 -26 38 -26 43 0 4 7 -2 16 -14 15 -22 63 -54 50 -33 -4 5 2 15 13 20
16 9 20 7 23 -7 2 -10 21 15 50 68 32 59 43 87 35 92 -8 5 -4 8 9 8 11 0 26
-6 33 -12z m-118 -99 c-6 -16 -10 -18 -10 -7 -1 22 12 55 16 42 2 -6 -1 -22
-6 -35z m724 -65 c10 -16 12 -16 28 0 15 16 17 16 17 1 0 -12 4 -14 19 -5 19
9 19 8 5 -20 -9 -16 -13 -34 -10 -39 4 -5 2 -12 -4 -16 -6 -4 -2 -18 12 -38
l23 -32 -29 23 -30 23 -68 -68 c-37 -37 -68 -63 -68 -57 0 6 32 41 70 78 39
38 70 71 70 75 0 10 -17 33 -24 32 -22 -3 -27 1 -22 15 3 9 -1 25 -9 37 -8 12
-15 26 -15 32 1 10 15 -7 35 -41z m96 23 c-10 -9 -11 -8 -5 6 3 10 9 15 12 12
3 -3 0 -11 -7 -18z m-877 -3 c3 -8 2 -12 -4 -9 -6 3 -10 10 -10 16 0 14 7 11
14 -7z m-103 -177 c-10 -9 -11 -8 -5 6 3 10 9 15 12 12 3 -3 0 -11 -7 -18z
m35 -25 c-18 -16 -18 -16 -6 6 6 13 14 21 18 18 3 -4 -2 -14 -12 -24z m-139
-14 c-3 -8 -6 -5 -6 6 -1 11 2 17 5 13 3 -3 4 -12 1 -19z m1127 6 c3 -8 2 -12
-4 -9 -6 3 -10 10 -10 16 0 14 7 11 14 -7z m-1075 -40 c6 4 11 5 11 2 0 -3 -9
-10 -20 -16 -17 -9 -20 -8 -20 12 0 17 3 19 9 9 5 -7 14 -10 20 -7z m181 -6
c0 -6 -7 -7 -16 -4 -9 3 -21 6 -27 6 -7 0 -7 4 2 9 16 10 41 4 41 -11z m818 4
c-18 -2 -28 -10 -29 -20 -1 -15 -2 -15 -6 1 -2 9 -14 18 -26 18 -12 1 -4 5 18
8 22 4 47 4 55 1 9 -3 4 -6 -12 -8z m-755 1 c2 -5 -3 -24 -10 -43 l-13 -35 5
37 c5 32 3 37 -17 41 -21 4 -20 4 4 6 15 0 29 -2 31 -6z m-126 -9 c-3 -3 -12
-4 -19 -1 -8 3 -5 6 6 6 11 1 17 -2 13 -5z m927 -9 c-4 -8 -8 -15 -10 -15 -2
0 -4 7 -4 15 0 8 4 15 10 15 5 0 7 -7 4 -15z m106 5 c0 -5 -4 -10 -10 -10 -5
0 -10 5 -10 10 0 6 5 10 10 10 6 0 10 -4 10 -10z m-1096 -14 c-10 -8 -21 -12
-24 -10 -5 6 21 24 34 24 6 0 1 -6 -10 -14z m1146 4 c12 -8 11 -10 -7 -10 -13
0 -23 5 -23 10 0 13 11 13 30 0z m-90 -10 c0 -5 -2 -10 -4 -10 -3 0 -8 5 -11
10 -3 6 -1 10 4 10 6 0 11 -4 11 -10z m-1140 -4 c0 -3 -4 -8 -10 -11 -5 -3
-10 -1 -10 4 0 6 5 11 10 11 6 0 10 -2 10 -4z m150 -6 c0 -5 -2 -10 -4 -10 -3
0 -8 5 -11 10 -3 6 -1 10 4 10 6 0 11 -4 11 -10z m901 -41 c-9 -22 -10 -22
-10 -3 -1 11 2 24 6 27 12 12 14 0 4 -24z m-1041 11 c0 -5 -2 -10 -4 -10 -3 0
-8 5 -11 10 -3 6 -1 10 4 10 6 0 11 -4 11 -10z m-153 -30 c49 -30 66 -62 59
-112 -4 -24 -6 -59 -6 -78 1 -19 2 -60 3 -90 l2 -55 -40 0 -40 0 -5 55 c-4 47
-8 55 -27 58 -20 3 -22 -1 -25 -55 l-3 -58 -35 0 -35 0 -3 178 -2 177 62 0
c45 0 72 -6 95 -20z m281 -162 l2 -178 -40 0 c-40 0 -40 0 -40 39 0 35 -2 39
-25 37 -22 -1 -25 -6 -25 -38 0 -38 0 -38 -41 -38 l-41 0 4 134 c3 117 6 138
23 162 31 41 83 65 135 62 l45 -3 3 -177z m1051 173 c7 -5 27 -4 46 2 46 14
82 2 105 -36 18 -28 20 -47 18 -172 l-3 -140 -35 0 -35 0 -5 133 c-3 78 -9
132 -15 132 -6 0 -12 -54 -15 -132 l-5 -133 -37 -3 -37 -3 -3 135 c-4 178 -21
180 -28 4 l-5 -133 -37 -3 c-38 -3 -38 -3 -40 35 -7 172 -5 234 11 265 24 48
83 72 120 49z m-182 -20 c0 -11 -5 -17 -9 -15 -11 7 -10 34 1 34 6 0 9 -9 8
-19z m-722 -131 c-3 -5 -12 -10 -18 -10 -7 0 -6 4 3 10 19 12 23 12 15 0z
m185 -219 c0 -5 -7 -12 -16 -15 -14 -5 -15 -4 -4 9 14 17 20 19 20 6z m675 -9
c-3 -3 -11 0 -18 7 -9 10 -8 11 6 5 10 -3 15 -9 12 -12z m-505 -82 l-11 -25 6
25 c2 14 5 36 6 50 l2 25 4 -25 c2 -14 -1 -37 -7 -50z m-82 14 c-3 -27 -4 -26
-9 8 -3 22 -1 34 4 29 5 -5 7 -21 5 -37z m339 4 c-3 -7 -5 -2 -5 12 0 14 2 19
5 13 2 -7 2 -19 0 -25z m-72 12 c4 -6 -1 -7 -10 -3 -10 3 -21 0 -26 -8 -7 -11
-9 -11 -9 4 0 18 34 24 45 7z m-267 -112 c-2 -5 -15 12 -28 39 -36 69 -36 75
0 20 17 -27 30 -53 28 -59z m409 80 c-3 -8 -6 -5 -6 6 -1 11 2 17 5 13 3 -3 4
-12 1 -19z m-107 -13 c13 -14 21 -25 18 -25 -2 0 -15 11 -28 25 -13 14 -21 25
-18 25 2 0 15 -11 28 -25z m-663 -17 c-3 -7 -5 -2 -5 12 0 14 2 19 5 13 2 -7
2 -19 0 -25z m523 -11 c0 -2 -9 -12 -20 -22 -24 -21 -27 -14 -4 9 15 15 24 20
24 13z m177 -19 c-3 -8 -6 -5 -6 6 -1 11 2 17 5 13 3 -3 4 -12 1 -19z m-362
-26 c-6 -7 -35 18 -35 31 0 5 9 2 20 -8 11 -10 18 -20 15 -23z m-338 -49 c-2
-16 -4 -3 -4 27 0 30 2 43 4 28 2 -16 2 -40 0 -55z m452 61 c-7 -9 -12 -29
-11 -45 1 -16 -2 -29 -8 -29 -15 0 -12 43 6 68 8 12 18 22 21 22 3 0 -1 -7 -8
-16z m161 -20 c0 -2 -7 -4 -15 -4 -8 0 -15 4 -15 10 0 5 7 7 15 4 8 -4 15 -8
15 -10z m-270 -37 c0 -7 -7 -22 -15 -33 -13 -17 -13 -16 -3 14 13 34 18 40 18
19z m-113 -204 c-3 -10 -5 -4 -5 12 0 17 2 24 5 18 2 -7 2 -21 0 -30z m376
-53 c11 -13 10 -13 -5 -1 -13 9 -17 26 -16 55 l1 41 4 -40 c3 -22 10 -47 16
-55z m-837 -128 c13 -8 27 -72 16 -72 -5 0 -14 6 -21 13 -11 10 -13 10 -7 0 4
-8 1 -13 -8 -13 -11 0 -16 10 -16 33 0 44 11 56 36 39z m101 -8 c2 -7 -3 -19
-12 -28 -15 -14 -15 -16 -1 -16 9 0 16 -4 16 -10 0 -5 -11 -10 -25 -10 -23 0
-25 4 -25 41 0 36 2 40 22 37 12 -2 23 -8 25 -14z m53 -6 l9 -23 7 23 c7 25
24 30 24 7 0 -20 -22 -65 -32 -65 -10 0 -37 62 -31 73 7 12 13 8 23 -15z m120
8 c0 -8 -7 -22 -16 -30 -14 -15 -14 -16 0 -16 9 0 16 -4 16 -10 0 -5 -11 -10
-25 -10 -22 0 -25 4 -25 40 0 36 3 40 25 40 15 0 25 -6 25 -14z m50 -16 c0
-21 5 -30 16 -30 8 0 12 -4 9 -10 -3 -5 -14 -10 -24 -10 -14 0 -20 9 -23 35
-2 20 -2 38 1 40 12 13 21 2 21 -25z m204 15 c3 -9 0 -15 -9 -15 -9 0 -15 -10
-15 -25 0 -14 -4 -25 -10 -25 -5 0 -10 11 -10 24 0 13 -5 26 -12 28 -6 2 -8
10 -4 16 10 17 53 15 60 -3z m46 -25 c0 -22 -4 -40 -10 -40 -5 0 -10 18 -10
40 0 22 5 40 10 40 6 0 10 -18 10 -40z m94 18 c14 -23 -3 -52 -33 -56 -25 -4
-36 17 -27 54 8 29 42 30 60 2z m73 10 c11 15 12 11 13 -24 0 -39 -2 -41 -30
-42 -27 -1 -30 2 -30 32 0 39 11 54 24 33 9 -14 11 -13 23 1z m94 -19 c8 -33
-3 -52 -27 -47 -19 3 -28 37 -18 66 7 22 37 9 45 -19z m129 21 c0 -5 -5 -10
-11 -10 -8 0 -8 -5 1 -15 9 -10 9 -15 1 -15 -6 0 -11 -7 -11 -15 0 -8 -7 -15
-15 -15 -10 0 -15 10 -15 33 0 19 3 37 7 40 10 11 43 8 43 -3z m80 -4 c16 -21
9 -60 -13 -64 -40 -8 -64 47 -29 67 23 14 28 13 42 -3z m77 2 c11 -18 12 -68
2 -68 -5 0 -9 6 -10 13 0 10 -2 10 -6 0 -10 -27 -23 -11 -23 27 0 41 19 55 37
28z m-688 -29 c14 -40 14 -39 -3 -39 -8 0 -17 6 -19 13 -4 9 -8 8 -16 -3 -16
-23 -22 -6 -10 28 14 41 34 41 48 1z m-612 -94 c-13 -9 -17 -20 -12 -34 4 -12
2 -21 -4 -21 -6 0 -11 11 -11 25 0 14 -4 25 -10 25 -5 0 -10 5 -10 10 0 6 15
10 33 10 29 -1 31 -2 14 -15z m64 -2 c1 -17 2 -17 6 0 6 23 23 22 23 -2 0 -11
3 -26 6 -35 4 -11 1 -16 -10 -16 -9 0 -17 8 -17 18 -1 16 -2 16 -6 0 -8 -33
-33 -20 -33 17 0 24 5 35 15 35 8 0 16 -8 16 -17z m109 8 c0 -5 -7 -17 -16
-25 -14 -15 -14 -16 0 -16 17 0 22 -15 7 -24 -21 -13 -41 7 -41 40 0 30 3 34
25 34 14 0 25 -4 25 -9z m127 -34 c2 -33 0 -37 -12 -27 -11 9 -15 10 -15 1 0
-7 -4 -9 -10 -6 -5 3 -10 22 -10 41 0 31 3 35 23 32 18 -2 22 -10 24 -41z
m101 12 c6 -48 -49 -63 -63 -18 -9 26 13 51 39 47 14 -2 22 -12 24 -29z m58
14 c13 -17 13 -17 14 0 0 9 7 17 15 17 12 0 12 -5 1 -32 -18 -41 -30 -45 -44
-13 -20 45 -12 61 14 28z m86 -18 c2 -22 -1 -36 -9 -39 -9 -4 -13 6 -13 34 0
49 16 53 22 5z m56 23 c9 -9 12 -9 12 0 0 7 5 12 10 12 6 0 10 -16 10 -35 0
-35 -22 -50 -33 -22 -3 7 -6 4 -6 -6 -2 -33 -21 -6 -21 29 0 36 8 42 28 22z
m114 -3 c-2 -5 -10 -9 -18 -7 -8 2 -14 -4 -14 -13 0 -12 6 -15 20 -10 14 4 20
2 20 -9 0 -20 -16 -29 -40 -21 -24 8 -35 42 -19 61 13 16 56 15 51 -1z m135
-21 c1 -27 -2 -31 -22 -31 -19 0 -24 6 -27 34 -4 31 -2 34 21 31 21 -2 26 -9
28 -34z m91 3 c17 -46 15 -53 -7 -33 -17 16 -19 16 -25 0 -4 -11 -10 -14 -16
-8 -12 12 9 74 25 74 6 0 16 -15 23 -33z m94 18 c-2 -5 -10 -9 -18 -7 -8 2
-14 -4 -14 -13 0 -8 9 -15 20 -15 24 0 26 -15 3 -24 -10 -4 -24 1 -36 12 -16
16 -17 23 -7 41 11 22 59 27 52 6z m96 -13 c4 -26 -13 -52 -34 -52 -23 0 -40
46 -24 65 19 23 54 15 58 -13z m61 11 c10 -17 10 -17 11 0 0 9 5 17 10 17 6 0
10 -16 10 -35 0 -24 -5 -35 -15 -35 -8 0 -15 6 -16 13 0 10 -2 10 -6 0 -10
-25 -23 -12 -23 22 0 38 13 46 29 18z m109 3 c-11 -8 -15 -20 -12 -33 3 -11 1
-24 -5 -27 -7 -5 -11 4 -11 23 0 17 -4 31 -10 31 -5 0 -10 5 -10 10 0 6 15 10
33 10 28 -1 30 -2 15 -14z m79 -6 c-1 -11 -6 -20 -12 -20 -5 0 -3 -5 5 -10 12
-7 12 -12 3 -21 -18 -18 -43 7 -43 42 0 24 4 29 24 29 19 0 24 -5 23 -20z m53
-6 c0 -16 5 -24 13 -21 6 2 11 14 9 25 -2 15 2 22 12 22 17 0 19 -12 10 -47
-7 -27 -32 -37 -50 -22 -16 13 -19 69 -4 69 6 0 10 -12 10 -26z m121 19 c6
-55 4 -60 -17 -60 -18 0 -23 6 -26 33 -4 30 -1 34 19 34 13 0 23 -3 24 -7z"/>
<path d="M1091 2293 c-5 -10 -30 -54 -56 -98 l-46 -80 79 80 c44 44 78 83 76
87 -3 5 -14 12 -24 18 -15 8 -21 6 -29 -7z"/>
<path d="M1191 2293 c-21 -18 -21 -18 56 -93 42 -41 70 -64 62 -50 -9 14 -33
55 -53 93 -21 37 -39 67 -41 67 -1 0 -12 -8 -24 -17z"/>
<path d="M1474 2258 c-14 -29 -33 -61 -42 -71 -8 -9 -12 -20 -9 -24 8 -7 112
91 129 121 7 13 7 16 -1 12 -6 -4 -20 -2 -31 4 -17 9 -22 5 -46 -42z"/>
<path d="M1106 2103 c3 -16 12 -46 19 -68 8 -22 16 -51 18 -65 2 -14 5 17 6
68 l1 92 -25 0 c-22 0 -25 -3 -19 -27z"/>
<path d="M1169 2058 c0 -40 -2 -83 -3 -95 -5 -43 13 -12 20 35 3 26 13 62 20
81 19 46 18 51 -11 51 -24 0 -25 -2 -26 -72z"/>
<path d="M1506 2108 c4 -13 15 -54 24 -93 l18 -70 1 93 1 92 -26 0 c-22 0 -24
-3 -18 -22z"/>
<path d="M1566 2078 c1 -29 3 -69 4 -88 l2 -35 13 45 c6 25 17 64 22 88 10 41
10 42 -16 42 -25 0 -26 -2 -25 -52z"/>
<path d="M1225 2083 c-4 -21 -13 -60 -22 -86 -8 -27 -13 -50 -11 -52 2 -3 25
31 51 75 43 75 45 80 27 90 -31 17 -39 12 -45 -27z"/>
<path d="M1448 2108 c-13 -12 -10 -22 29 -91 25 -43 47 -77 49 -74 8 8 -40
177 -51 177 -6 0 -18 -6 -27 -12z"/>
<path d="M1286 2065 c-9 -13 -16 -29 -16 -35 0 -5 -4 -10 -8 -10 -4 0 -18 -21
-31 -47 l-22 -48 67 67 c58 57 66 69 55 82 -18 22 -26 20 -45 -9z"/>
<path d="M1388 2076 c-16 -11 -12 -17 33 -62 56 -54 108 -121 74 -94 -10 8
-45 40 -78 70 l-59 56 -83 -80 c-46 -44 -82 -82 -81 -84 2 -1 19 6 37 17 74
44 195 46 254 5 11 -8 22 -14 26 -14 14 0 4 38 -20 75 -36 56 -48 77 -62 103
-14 25 -18 26 -41 8z"/>
<path d="M1307 1913 c-7 -13 17 -86 31 -91 8 -2 12 11 12 47 0 44 -3 51 -19
51 -11 0 -22 -3 -24 -7z"/>
<path d="M1370 1861 c0 -73 14 -86 29 -28 18 72 18 79 -6 83 -22 4 -23 0 -23
-55z"/>
<path d="M1253 1899 c-26 -9 -29 -19 -11 -37 8 -8 8 -12 1 -12 -6 0 -14 7 -17
16 -5 13 -10 13 -36 -6 l-30 -21 0 -175 c0 -114 4 -174 10 -174 7 0 10 58 8
174 l-3 174 63 -1 c56 -2 62 0 62 19 0 34 -22 53 -47 43z"/>
<path d="M1436 1901 c-3 -5 -12 -34 -20 -65 -14 -51 -13 -60 3 -96 l17 -39 13
34 c11 31 47 70 89 95 15 9 15 12 -7 30 l-24 20 -34 -57 c-41 -69 -41 -68 -50
-60 -3 4 1 15 10 25 10 10 17 23 17 28 0 5 9 20 20 34 11 14 20 28 20 31 0 10
-49 29 -54 20z"/>
<path d="M1589 1885 c-1 -3 -2 -8 -3 -12 -1 -5 -5 -14 -10 -22 -7 -11 -4 -13
15 -8 13 4 27 7 31 7 12 0 -3 28 -18 34 -8 3 -15 3 -15 1z"/>
<path d="M1067 1825 c-4 -8 -2 -17 3 -20 6 -4 10 3 10 14 0 25 -6 27 -13 6z"/>
<path d="M1270 1751 c0 -4 12 -18 26 -32 l26 -24 -12 27 c-12 26 -40 46 -40
29z"/>
<path d="M1561 1744 c-13 -9 -29 -32 -37 -50 -12 -29 -12 -39 0 -68 8 -18 24
-41 37 -50 26 -18 81 -21 110 -6 23 13 49 61 49 92 0 28 -35 88 -51 88 -8 0
-8 -6 2 -18 8 -10 4 -8 -8 5 -26 27 -69 30 -102 7z m4 -93 c0 -38 -3 -67 -6
-65 -4 2 -7 29 -8 59 0 31 -3 60 -6 65 -3 6 0 10 7 10 9 0 13 -19 13 -69z m39
57 c-3 -4 -9 -8 -15 -8 -5 0 -9 4 -9 8 0 5 7 9 15 9 8 0 12 -4 9 -9z m66 -19
c0 -4 -7 -6 -15 -3 -8 4 -15 10 -15 15 0 4 7 6 15 3 8 -4 15 -10 15 -15z m-60
-75 c-17 -61 -23 -49 -8 16 7 29 14 47 16 41 2 -7 -1 -33 -8 -57z m62 4 c-7
-7 -12 -8 -12 -2 0 6 3 14 7 17 3 4 9 5 12 2 2 -3 -1 -11 -7 -17z m-19 -33
c-3 -9 -8 -14 -10 -11 -3 3 -2 9 2 15 9 16 15 13 8 -4z"/>
<path d="M1260 1680 c0 -27 5 -50 10 -50 9 0 14 18 13 49 -1 10 2 10 10 2 8
-8 7 -20 -5 -44 -28 -52 -27 -67 2 -67 11 0 60 48 60 60 0 4 3 17 6 27 5 17 5
17 -6 0 -6 -9 -16 -15 -21 -12 -5 4 -7 11 -3 16 5 9 -45 69 -58 69 -5 0 -8
-22 -8 -50z"/>
<path d="M1332 1708 c7 -15 15 -23 17 -17 2 6 -4 18 -13 27 -15 15 -15 15 -4
-10z"/>
<path d="M540 1720 c0 -32 4 -40 18 -40 41 0 57 51 23 70 -33 17 -41 11 -41
-30z"/>
<path d="M790 1740 c-14 -14 -20 -33 -20 -63 0 -39 2 -43 25 -43 24 0 25 2 25
63 0 35 -2 63 -5 63 -3 0 -14 -9 -25 -20z"/>
<path d="M1359 838 c-6 -21 -5 -38 2 -38 5 0 9 9 9 20 0 16 -7 28 -11 18z"/>
<path d="M1740 821 c0 -12 5 -21 10 -21 6 0 10 6 10 14 0 8 -4 18 -10 21 -5 3
-10 -3 -10 -14z"/>
<path d="M910 699 c0 -11 5 -17 10 -14 6 3 10 13 10 21 0 8 -4 14 -10 14 -5 0
-10 -9 -10 -21z"/>
<path d="M1640 705 c0 -8 5 -15 10 -15 6 0 10 7 10 15 0 8 -4 15 -10 15 -5 0
-10 -7 -10 -15z"/>
<path d="M2210 2325 l0 -125 125 0 c103 0 125 3 125 15 0 11 -21 15 -107 17
l-108 3 -3 108 c-2 86 -6 107 -17 107 -12 0 -15 -22 -15 -125z"/>
<path d="M160 380 c0 -19 6 -20 105 -20 l105 0 0 -105 c0 -99 1 -105 20 -105
20 0 20 5 18 123 l-3 122 -122 3 c-118 2 -123 2 -123 -18z"/>
<path d="M2210 275 c0 -104 2 -125 15 -125 12 0 15 18 15 105 l0 104 107 3
c93 3 108 5 111 21 3 15 -8 17 -122 17 l-126 0 0 -125z"/>
</g>
</svg>
